<svg xmlns="http://www.w3.org/2000/svg" xmlns:xlink="http://www.w3.org/1999/xlink" width="231.297" height="53.957" viewBox="0 0 231.297 53.957">
  <defs>
    <clipPath id="clip-path">
      <rect id="Rectangle_699" data-name="Rectangle 699" width="231.297" height="33.957" fill="none"/>
    </clipPath>
  </defs>
  <g id="Group_669" data-name="Group 669" transform="translate(-686.852 -647.022)">
    <g id="Vektor-Smartobjekt" transform="translate(802.5 664)">
      <g id="Group_547" data-name="Group 547" transform="translate(-115.648 -16.978)">
        <path id="Path_589" data-name="Path 589" d="M.446,52.053v7.329h.825V56.124h6.5V55.3h-6.5V52.053Z" transform="translate(-0.222 -25.914)" fill="#f4f4f4"/>
        <g id="Group_540" data-name="Group 540" transform="translate(0 0)">
          <g id="Group_539" data-name="Group 539" clip-path="url(#clip-path)">
            <path id="Path_590" data-name="Path 590" d="M.447,52.053h.825V55.3h6.5v.825h-6.5v3.258H.447Z" transform="translate(-0.222 -25.914)" fill="none" stroke="#f4f4f4" stroke-miterlimit="10" stroke-width="0.377"/>
          </g>
        </g>
        <path id="Path_591" data-name="Path 591" d="M6.951,37.172v5.864H4.529V38.323H3.694v4.713H1.271V37.172H.446V43.86h7.33V37.172Z" transform="translate(-0.222 -18.506)" fill="#f4f4f4"/>
        <g id="Group_542" data-name="Group 542" transform="translate(0 0)">
          <g id="Group_541" data-name="Group 541" clip-path="url(#clip-path)">
            <path id="Path_592" data-name="Path 592" d="M1.271,37.172v5.863H3.694V38.323h.835v4.713H6.951V37.172h.825v6.688H.447V37.172Z" transform="translate(-0.222 -18.506)" fill="none" stroke="#f4f4f4" stroke-miterlimit="10" stroke-width="0.377"/>
          </g>
        </g>
        <path id="Path_593" data-name="Path 593" d="M.446,1.431V2.56L4.07,5.6.446,8.648v1.13h7.33V8.953H1.383L5.364,5.6,1.383,2.256H7.776V1.431Z" transform="translate(-0.222 -0.712)" fill="#f4f4f4"/>
        <g id="Group_544" data-name="Group 544" transform="translate(0 0)">
          <g id="Group_543" data-name="Group 543" clip-path="url(#clip-path)">
            <path id="Path_594" data-name="Path 594" d="M.447,2.561V1.431h7.33v.825H1.383L5.363,5.6,1.383,8.954H7.776v.824H.447V8.648L4.071,5.6Z" transform="translate(-0.222 -0.712)" fill="none" stroke="#f4f4f4" stroke-miterlimit="10" stroke-width="0.377"/>
          </g>
        </g>
        <path id="Path_595" data-name="Path 595" d="M1.175,21.393h3.1v5.471h-3.1Zm-.8-.8v7.071H7.748v-.8H5.071V21.393H7.748v-.8Z" transform="translate(-0.187 -10.252)" fill="#f4f4f4"/>
        <g id="Group_546" data-name="Group 546" transform="translate(0 0)">
          <g id="Group_545" data-name="Group 545" clip-path="url(#clip-path)">
            <path id="Path_596" data-name="Path 596" d="M7.748,21.394v-.8H.375v7.071H7.748v-.8H5.071V21.394ZM4.271,26.865h-3.1V21.394h3.1Z" transform="translate(-0.187 -10.253)" fill="none" stroke="#f4f4f4" stroke-miterlimit="10" stroke-width="0.377"/>
          </g>
        </g>
        <path id="Path_597" data-name="Path 597" d="M302.312.421V3.976h15.042V34.067h3.555V3.976h15.048V.421Z" transform="translate(-150.502 -0.209)" fill="#f4f4f4"/>
        <rect id="Rectangle_703" data-name="Rectangle 703" width="3.555" height="33.646" transform="translate(190.266 0.212)" fill="#f4f4f4"/>
        <rect id="Rectangle_704" data-name="Rectangle 704" width="25.845" height="3.562" transform="translate(49.523 30.297)" fill="#f4f4f4"/>
        <path id="Path_598" data-name="Path 598" d="M124.675,30.379l-1.069,3.555H98.619V30.379Z" transform="translate(-49.096 -15.123)" fill="#f4f4f4"/>
        <rect id="Rectangle_705" data-name="Rectangle 705" width="25.845" height="3.555" transform="translate(49.523 0.213)" fill="#f4f4f4"/>
        <rect id="Rectangle_706" data-name="Rectangle 706" width="25.845" height="3.562" transform="translate(120.227 30.297)" fill="#f4f4f4"/>
        <path id="Path_599" data-name="Path 599" d="M265.475,30.379l-1.069,3.555H239.419V30.379Z" transform="translate(-119.192 -15.123)" fill="#f4f4f4"/>
        <rect id="Rectangle_707" data-name="Rectangle 707" width="25.845" height="3.555" transform="translate(120.227 0.213)" fill="#f4f4f4"/>
        <path id="Path_600" data-name="Path 600" d="M21.38,0V33.372H54.542V14.451h-3.35V30.022H24.724V3.351H53.093L54.137,0Z" transform="translate(-10.644 0)" fill="#f4f4f4"/>
        <path id="Path_601" data-name="Path 601" d="M161.276.458V34.172h3.307V3.758H191.5V34.184h3.313V.458Z" transform="translate(-80.29 -0.228)" fill="#f4f4f4"/>
        <path id="Path_602" data-name="Path 602" d="M420.976.5,410.129,13.567,399.245.5h-4.73L407.7,16.47l-14.52,17.64h4.786l12.164-14.688L422.256,34.11h4.78L412.5,16.47,425.706.5Z" transform="translate(-195.74 -0.246)" fill="#f4f4f4"/>
      </g>
    </g>
    <text id="_27632" data-name="$27632" transform="translate(765.578 696.978)" fill="#fff" font-size="16" font-family="Orbitron-Regular, Orbitron" letter-spacing="0.004em"><tspan x="0" y="0">WEBSITE</tspan></text>
  </g>
</svg>
